<?xml version="1.0"?>
<svg version="1.1" xmlns="http://www.w3.org/2000/svg" xmlns:xlink="http://www.w3.org/1999/xlink" width="117" height="53">
    <desc iVinci="yes" version="4.5" gridStep="20" showGrid="no" snapToGrid="no" codePlatform="0"/>
    <g id="Layer1" opacity="1">
        <g id="Shape1">
            <desc shapeID="1" type="2" basicInfo-basicType="0" basicInfo-roundedRectRadius="12" basicInfo-polygonSides="6" basicInfo-starPoints="5" bounding="rect(-55,-49,110,98)" text="ED" font-familyName="Bodoni 72 Smallcaps" font-pixelSize="45" font-bold="0" font-underline="0" font-alignment="1" strokeStyle="0" markerStart="0" markerEnd="0" shadowEnabled="0" shadowOffsetX="0" shadowOffsetY="2" shadowBlur="4" shadowOpacity="160" blurEnabled="0" blurRadius="4" transform="matrix(1,0,0,1,54.4391,26.9831)" pers-center="0,0" pers-size="0,0" pers-start="0,0" pers-end="0,0" locked="0" mesh="" flag=""/>
            <path id="shapePath1" d="M50.526,34.8025 C50.526,34.9225 50.496,35.6575 50.436,37.0075 C50.376,38.3575 50.346,39.6475 50.346,40.8775 L50.346,42.3625 C47.406,42.2125 41.586,42.1375 32.886,42.1375 C31.836,42.1375 30.801,42.1525 29.781,42.1825 C28.761,42.1825 28.071,42.1825 27.711,42.1825 L27.261,42.1825 C26.691,42.1825 26.406,42.0475 26.406,41.7775 C26.406,41.5975 26.496,41.4925 26.676,41.4625 C26.766,41.4625 27.336,41.4175 28.386,41.3275 C29.166,41.2675 29.6385,41.1025 29.8035,40.8325 C29.9685,40.5625 30.051,39.8575 30.051,38.7175 L30.051,13.4275 C30.051,12.5575 29.9235,12.04 29.6685,11.875 C29.4135,11.71 28.596,11.6275 27.216,11.6275 C26.736,11.6275 26.496,11.4925 26.496,11.2225 C26.496,10.9525 26.826,10.8175 27.486,10.8175 L35.181,10.8625 C35.451,10.8625 37.146,10.8475 40.266,10.8175 C43.386,10.8175 45.486,10.8175 46.566,10.8175 C47.466,10.8175 48.291,10.7575 49.041,10.6375 C49.101,11.9275 49.236,13.7125 49.446,15.9925 L49.626,17.9275 C49.656,18.0775 49.671,18.2725 49.671,18.5125 C49.671,18.8125 49.536,18.9625 49.266,18.9625 C48.936,18.9625 48.696,18.5875 48.546,17.8375 C47.976,15.1375 47.046,13.4275 45.756,12.7075 C44.796,12.1675 42.276,11.8975 38.196,11.8975 L34.506,11.8975 L34.506,25.0825 L35.586,25.0825 C38.946,25.0825 40.9935,24.8275 41.7285,24.3175 C42.4635,23.8075 42.966,22.3225 43.236,19.8625 C43.296,19.2325 43.461,18.9175 43.731,18.9175 C44.061,18.9175 44.226,19.1875 44.226,19.7275 C44.226,20.2675 44.196,21.0625 44.136,22.1125 C44.076,23.1625 44.046,23.9575 44.046,24.4975 C44.046,27.7075 44.106,29.9125 44.226,31.1125 C44.256,31.4125 44.271,31.6675 44.271,31.8775 C44.271,32.2675 44.106,32.4625 43.776,32.4625 C43.566,32.4625 43.4235,32.335 43.3485,32.08 C43.2735,31.825 43.146,30.9925 42.966,29.5825 C42.726,27.8125 41.991,26.7175 40.761,26.2975 C40.221,26.1175 38.811,26.0275 36.531,26.0275 L34.506,26.0275 L34.506,41.1475 C41.106,41.1475 44.976,41.0125 46.116,40.7425 C48.096,40.2925 49.221,38.3725 49.491,34.9825 C49.551,34.2325 49.746,33.8575 50.076,33.8575 C50.376,33.8575 50.526,34.1725 50.526,34.8025 M81.7535,26.5225 C81.7535,31.8025 79.9085,35.9125 76.2185,38.8525 C73.5185,41.0125 69.9035,42.0925 65.3735,42.0925 C65.2535,42.0925 64.721,42.0775 63.776,42.0475 C62.831,42.0175 61.4585,42.0025 59.6585,42.0025 L57.4085,42.0025 L53.8535,42.0475 C53.6435,42.0775 53.4185,42.0925 53.1785,42.0925 C52.6085,42.0925 52.3235,41.9425 52.3235,41.6425 C52.3235,41.3725 52.8035,41.2375 53.7635,41.2375 C54.9935,41.2375 55.7585,41.0125 56.0585,40.5625 C56.1785,40.3525 56.2385,39.7825 56.2385,38.8525 L56.2385,14.5975 C56.2385,13.1275 56.126,12.2725 55.901,12.0325 C55.676,11.7925 54.9035,11.6725 53.5835,11.6725 C52.8935,11.6725 52.5485,11.5075 52.5485,11.1775 C52.5485,10.9375 52.8035,10.8175 53.3135,10.8175 C53.2835,10.8175 53.6135,10.8325 54.3035,10.8625 C54.9935,10.8925 55.6685,10.9075 56.3285,10.9075 L61.1435,10.9075 C66.5435,10.9075 70.3685,11.2825 72.6185,12.0325 C75.3485,12.9325 77.5535,14.71 79.2335,17.365 C80.9135,20.02 81.7535,23.0725 81.7535,26.5225 M76.7135,26.3425 C76.7135,21.3625 75.7385,17.71 73.7885,15.385 C71.8385,13.06 68.7935,11.8975 64.6535,11.8975 C62.6435,11.8975 61.4285,12.1075 61.0085,12.5275 C60.8285,12.7375 60.7385,13.4575 60.7385,14.6875 L60.7385,38.6275 C60.7385,39.4675 60.761,39.9775 60.806,40.1575 C60.851,40.3375 60.9785,40.4875 61.1885,40.6075 C61.9085,40.9675 63.4235,41.1475 65.7335,41.1475 C68.9735,41.1475 71.5835,40.0075 73.5635,37.7275 C75.6635,35.3275 76.7135,31.5325 76.7135,26.3425 Z" style="stroke:none;fill-rule:nonzero;fill:#ffeaec;fill-opacity:1;"/>
        </g>
    </g>
    <g id="Layer2" opacity="1">
        <g id="Shape2">
            <desc shapeID="2" type="2" basicInfo-basicType="0" basicInfo-roundedRectRadius="12" basicInfo-polygonSides="6" basicInfo-starPoints="5" bounding="rect(-125.5,-10,251,20)" text="Eric Daubert" font-familyName="Bodoni 72 Oldstyle" font-pixelSize="23" font-bold="0" font-underline="0" font-alignment="1" strokeStyle="0" markerStart="0" markerEnd="0" shadowEnabled="0" shadowOffsetX="0" shadowOffsetY="2" shadowBlur="4" shadowOpacity="160" blurEnabled="0" blurRadius="4" transform="matrix(1,0,0,1,57.9821,26.9539)" pers-center="0,0" pers-size="0,0" pers-start="0,0" pers-end="0,0" locked="0" mesh="" flag=""/>
            <path id="shapePath2" d="M14.58,30.7435 C14.58,30.8048 14.5647,31.1805 14.534,31.8705 C14.5033,32.5605 14.488,33.2198 14.488,33.8485 L14.488,34.6075 C12.9853,34.5308 10.0107,34.4925 5.564,34.4925 C5.02733,34.4925 4.49833,34.5002 3.977,34.5155 C3.45567,34.5155 3.103,34.5155 2.919,34.5155 L2.689,34.5155 C2.39767,34.5155 2.252,34.4465 2.252,34.3085 C2.252,34.2165 2.298,34.1628 2.39,34.1475 C2.436,34.1475 2.72733,34.1245 3.264,34.0785 C3.66267,34.0478 3.90417,33.9635 3.9885,33.8255 C4.07283,33.6875 4.115,33.3272 4.115,32.7445 L4.115,19.8185 C4.115,19.3738 4.04983,19.1093 3.9195,19.025 C3.78917,18.9407 3.37133,18.8985 2.666,18.8985 C2.42067,18.8985 2.298,18.8295 2.298,18.6915 C2.298,18.5535 2.46667,18.4845 2.804,18.4845 L6.737,18.5075 C6.875,18.5075 7.74133,18.4998 9.336,18.4845 C10.9307,18.4845 12.004,18.4845 12.556,18.4845 C13.016,18.4845 13.4377,18.4538 13.821,18.3925 C13.8517,19.0518 13.9207,19.9642 14.028,21.1295 L14.12,22.1185 C14.1353,22.1952 14.143,22.2948 14.143,22.4175 C14.143,22.5708 14.074,22.6475 13.936,22.6475 C13.7673,22.6475 13.6447,22.4558 13.568,22.0725 C13.2767,20.6925 12.8013,19.8185 12.142,19.4505 C11.6513,19.1745 10.3633,19.0365 8.278,19.0365 L6.392,19.0365 L6.392,25.7755 L6.944,25.7755 C8.66133,25.7755 9.70783,25.6452 10.0835,25.3845 C10.4592,25.1238 10.716,24.3648 10.854,23.1075 C10.8847,22.7855 10.969,22.6245 11.107,22.6245 C11.2757,22.6245 11.36,22.7625 11.36,23.0385 C11.36,23.3145 11.3447,23.7208 11.314,24.2575 C11.2833,24.7942 11.268,25.2005 11.268,25.4765 C11.268,27.1172 11.2987,28.2442 11.36,28.8575 C11.3753,29.0108 11.383,29.1412 11.383,29.2485 C11.383,29.4478 11.2987,29.5475 11.13,29.5475 C11.0227,29.5475 10.9498,29.4823 10.9115,29.352 C10.8732,29.2217 10.808,28.7962 10.716,28.0755 C10.5933,27.1708 10.2177,26.6112 9.589,26.3965 C9.313,26.3045 8.59233,26.2585 7.427,26.2585 L6.392,26.2585 L6.392,33.9865 C9.76533,33.9865 11.7433,33.9175 12.326,33.7795 C13.338,33.5495 13.913,32.5682 14.051,30.8355 C14.0817,30.4522 14.1813,30.2605 14.35,30.2605 C14.5033,30.2605 14.58,30.4215 14.58,30.7435 M22.78,25.7295 C22.78,26.0822 22.6727,26.3735 22.458,26.6035 C22.2433,26.8335 21.9673,26.9485 21.63,26.9485 C21.354,26.9485 21.124,26.868 20.94,26.707 C20.756,26.546 20.664,26.3428 20.664,26.0975 C20.664,25.8828 20.733,25.6988 20.871,25.5455 C21.009,25.3922 21.078,25.2848 21.078,25.2235 C21.078,24.9935 20.9093,24.8785 20.572,24.8785 C20.1427,24.8785 19.7747,25.1468 19.468,25.6835 C19.1153,26.3122 18.939,27.4775 18.939,29.1795 L18.939,33.7335 C18.939,33.9175 19.0042,34.0325 19.1345,34.0785 C19.2648,34.1245 19.6597,34.1552 20.319,34.1705 C20.4877,34.2012 20.572,34.2625 20.572,34.3545 C20.572,34.4618 20.4723,34.5155 20.273,34.5155 C19.9203,34.5155 19.5907,34.5078 19.284,34.4925 C18.9773,34.4772 18.3947,34.4695 17.536,34.4695 C17.0913,34.4695 16.7693,34.4772 16.57,34.4925 C16.3707,34.5078 16.1177,34.5155 15.811,34.5155 C15.5657,34.5155 15.443,34.4618 15.443,34.3545 C15.443,34.2472 15.5427,34.1935 15.742,34.1935 L16.064,34.1935 C16.5853,34.1935 16.892,34.1322 16.984,34.0095 C17.0147,33.9482 17.03,33.6645 17.03,33.1585 L17.03,26.8335 C17.03,25.9902 16.9035,25.5033 16.6505,25.373 C16.3975,25.2427 15.995,25.1698 15.443,25.1545 C15.259,25.1545 15.167,25.1008 15.167,24.9935 C15.167,24.8862 15.2437,24.8325 15.397,24.8325 L15.558,24.8325 C15.788,24.8325 16.018,24.844 16.248,24.867 C16.478,24.89 16.5777,24.9015 16.547,24.9015 C17.1143,24.9015 17.743,24.7405 18.433,24.4185 L18.732,24.2805 L18.916,24.2115 C18.9773,24.5795 19.008,24.9475 19.008,25.3155 L19.008,25.7755 C19.4987,24.7022 20.1887,24.1655 21.078,24.1655 C21.5687,24.1655 21.975,24.315 22.297,24.614 C22.619,24.913 22.78,25.2848 22.78,25.7295 M26.6356,20.0025 C26.6356,20.6925 26.2906,21.0375 25.6006,21.0375 C25.3093,21.0375 25.064,20.9417 24.8646,20.75 C24.6653,20.5583 24.5656,20.3245 24.5656,20.0485 C24.5656,19.3278 24.9106,18.9675 25.6006,18.9675 C26.2906,18.9675 26.6356,19.3125 26.6356,20.0025 M28.3606,34.3315 C28.3606,34.4695 28.2303,34.5385 27.9696,34.5385 C27.985,34.5385 27.801,34.5232 27.4176,34.4925 C26.9576,34.4618 26.5743,34.4465 26.2676,34.4465 L23.8756,34.4925 C23.799,34.5078 23.707,34.5155 23.5996,34.5155 C23.431,34.5155 23.3466,34.4618 23.3466,34.3545 C23.3466,34.2012 23.5,34.1245 23.8066,34.1245 C24.3893,34.1092 24.7075,34.067 24.7611,33.998 C24.8148,33.929 24.8416,33.6108 24.8416,33.0435 L24.8186,26.0745 C24.8033,25.6912 24.7841,25.465 24.7611,25.396 C24.7381,25.327 24.6423,25.2925 24.4736,25.2925 L23.8066,25.3155 C23.7453,25.3308 23.6686,25.3385 23.5766,25.3385 C23.408,25.3385 23.3236,25.2772 23.3236,25.1545 C23.3236,25.0472 23.454,24.9858 23.7146,24.9705 C24.742,24.9245 25.6236,24.6792 26.3596,24.2345 L26.5896,24.0965 C26.7123,24.3265 26.7736,24.7482 26.7736,25.3615 C26.7736,25.3308 26.7736,25.4075 26.7736,25.5915 C26.7583,25.7755 26.7506,26.0745 26.7506,26.4885 L26.7506,32.7675 C26.7506,33.3808 26.7621,33.7412 26.7851,33.8485 C26.8081,33.9558 26.8886,34.0248 27.0266,34.0555 C27.2566,34.1168 27.594,34.1475 28.0386,34.1475 C28.2533,34.1475 28.3606,34.2088 28.3606,34.3315 M37.6452,26.5345 C37.6452,27.2398 37.3002,27.5925 36.6102,27.5925 C35.9356,27.5925 35.5983,27.2705 35.5983,26.6265 C35.5983,26.4578 35.6749,26.2048 35.8282,25.8675 C35.8742,25.7602 35.8972,25.6528 35.8972,25.5455 C35.8972,25.2388 35.7401,24.9858 35.4258,24.7865 C35.1114,24.5872 34.7166,24.4875 34.2412,24.4875 C33.3213,24.4875 32.6082,24.8862 32.1022,25.6835 C31.5962,26.4808 31.3433,27.6002 31.3433,29.0415 C31.3433,30.6668 31.6039,31.9203 32.1253,32.802 C32.6466,33.6837 33.3826,34.1245 34.3333,34.1245 C34.9772,34.1245 35.5522,33.9252 36.0583,33.5265 C36.2882,33.3425 36.5872,32.9898 36.9552,32.4685 C37.0319,32.3918 37.1009,32.3535 37.1622,32.3535 C37.3156,32.3535 37.3923,32.4148 37.3923,32.5375 C37.3923,32.7368 37.1239,33.1125 36.5872,33.6645 C35.8972,34.3852 35.0156,34.7455 33.9422,34.7455 C32.5929,34.7455 31.4774,34.2625 30.5957,33.2965 C29.7141,32.3305 29.2732,31.1115 29.2732,29.6395 C29.2732,28.0602 29.7409,26.753 30.6762,25.718 C31.6116,24.683 32.7846,24.1655 34.1953,24.1655 C35.0999,24.1655 35.9011,24.4032 36.5987,24.8785 C37.2964,25.3538 37.6452,25.9058 37.6452,26.5345 M57.7341,26.5115 C57.7341,29.2102 56.7911,31.3108 54.9051,32.8135 C53.5251,33.9175 51.6775,34.4695 49.3621,34.4695 C49.3008,34.4695 49.0286,34.4618 48.5456,34.4465 C48.0626,34.4312 47.3611,34.4235 46.4411,34.4235 L45.2911,34.4235 L43.4741,34.4465 C43.3668,34.4618 43.2518,34.4695 43.1291,34.4695 C42.8378,34.4695 42.6921,34.3928 42.6921,34.2395 C42.6921,34.1015 42.9375,34.0325 43.4281,34.0325 C44.0568,34.0325 44.4478,33.9175 44.6011,33.6875 C44.6625,33.5802 44.6931,33.2888 44.6931,32.8135 L44.6931,20.4165 C44.6931,19.6652 44.6356,19.2282 44.5206,19.1055 C44.4056,18.9828 44.0108,18.9215 43.3361,18.9215 C42.9835,18.9215 42.8071,18.8372 42.8071,18.6685 C42.8071,18.5458 42.9375,18.4845 43.1981,18.4845 C43.1828,18.4845 43.3515,18.4922 43.7041,18.5075 C44.0568,18.5228 44.4018,18.5305 44.7391,18.5305 L47.2001,18.5305 C49.9601,18.5305 51.9151,18.7222 53.0651,19.1055 C54.4605,19.5655 55.5875,20.474 56.4461,21.831 C57.3048,23.188 57.7341,24.7482 57.7341,26.5115 M55.1581,26.4195 C55.1581,23.8742 54.6598,22.0073 53.6631,20.819 C52.6665,19.6307 51.1101,19.0365 48.9941,19.0365 C47.9668,19.0365 47.3458,19.1438 47.1311,19.3585 C47.0391,19.4658 46.9931,19.8338 46.9931,20.4625 L46.9931,32.6985 C46.9931,33.1278 47.0046,33.3885 47.0276,33.4805 C47.0506,33.5725 47.1158,33.6492 47.2231,33.7105 C47.5911,33.8945 48.3655,33.9865 49.5461,33.9865 C51.2021,33.9865 52.5361,33.4038 53.5481,32.2385 C54.6215,31.0118 55.1581,29.0722 55.1581,26.4195 M68.5522,33.4345 C68.5522,33.6952 68.2801,33.9673 67.7357,34.251 C67.1914,34.5347 66.6663,34.6765 66.1602,34.6765 C65.1022,34.6765 64.5502,34.1322 64.5042,33.0435 C63.9216,34.1782 63.0169,34.7455 61.7902,34.7455 C61.1309,34.7455 60.5866,34.55 60.1572,34.159 C59.7279,33.768 59.5132,33.2658 59.5132,32.6525 C59.5132,31.3952 60.2722,30.3985 61.7902,29.6625 C62.3116,29.4172 63.2162,29.1718 64.5042,28.9265 L64.5042,28.3515 C64.5042,27.0022 64.4352,26.1128 64.2972,25.6835 C64.0519,24.9015 63.4999,24.5105 62.6413,24.5105 C62.1046,24.5105 61.6561,24.6562 61.2957,24.9475 C60.9354,25.2388 60.7552,25.6068 60.7552,26.0515 C60.7552,26.1742 60.8511,26.2355 61.0427,26.2355 C61.2344,26.2355 61.4069,26.3275 61.5602,26.5115 C61.7136,26.6955 61.7902,26.9025 61.7902,27.1325 C61.7902,27.8072 61.4529,28.1445 60.7782,28.1445 C60.4256,28.1445 60.1343,28.0257 59.9043,27.788 C59.6742,27.5503 59.5592,27.2475 59.5592,26.8795 C59.5592,26.1588 59.8429,25.5378 60.4102,25.0165 C61.0389,24.4492 61.9129,24.1655 63.0322,24.1655 C64.7189,24.1655 65.7539,24.6255 66.1373,25.5455 C66.2753,25.8982 66.3443,26.5958 66.3443,27.6385 L66.3443,31.9395 C66.3443,32.6448 66.3519,33.0588 66.3672,33.1815 C66.4439,33.7335 66.6663,34.0095 67.0342,34.0095 C67.4636,34.0095 67.8162,33.8562 68.0922,33.5495 C68.2456,33.3808 68.3606,33.2965 68.4372,33.2965 C68.5139,33.2965 68.5522,33.3425 68.5522,33.4345 M64.5042,30.9965 L64.5042,29.3175 C63.3542,29.5782 62.5301,29.9193 62.0317,30.341 C61.5334,30.7627 61.2842,31.3262 61.2842,32.0315 C61.2842,32.5222 61.4261,32.9247 61.7097,33.239 C61.9934,33.5533 62.3499,33.7105 62.7793,33.7105 C63.4386,33.7105 63.9676,33.3425 64.3662,32.6065 C64.4583,32.4378 64.5042,31.9012 64.5042,30.9965 M79.3102,33.6875 C79.3102,33.7948 79.1416,33.8562 78.8042,33.8715 C77.6082,33.9482 76.5579,34.2088 75.6533,34.6535 C75.5919,34.6842 75.5383,34.6995 75.4922,34.6995 C75.4003,34.6995 75.3542,34.6382 75.3542,34.5155 L75.3773,33.2275 C74.6719,34.2395 73.6829,34.7455 72.4102,34.7455 C71.2756,34.7455 70.4629,34.4158 69.9723,33.7565 C69.7729,33.4805 69.6541,33.2275 69.6158,32.9975 C69.5774,32.7675 69.5583,32.1465 69.5583,31.1345 L69.5583,25.8675 C69.5583,25.3308 69.5276,25.0165 69.4662,24.9245 C69.4049,24.8325 69.1979,24.7788 68.8452,24.7635 L68.5462,24.7865 C68.1322,24.8172 67.9252,24.7558 67.9252,24.6025 C67.9252,24.4952 68.0556,24.4415 68.3162,24.4415 C68.5922,24.4415 68.9909,24.4568 69.5123,24.4875 C69.7729,24.5028 69.9262,24.5105 69.9723,24.5105 C70.5089,24.5105 71.0072,24.4875 71.4672,24.4415 L71.4672,30.8585 C71.4672,32.0392 71.5439,32.8212 71.6973,33.2045 C71.9426,33.8025 72.4409,34.1015 73.1922,34.1015 C74.0049,34.1015 74.6029,33.7642 74.9863,33.0895 C75.2623,32.5988 75.4003,31.8168 75.4003,30.7435 L75.4003,27.1785 C75.4003,26.6572 75.3926,26.2662 75.3773,26.0055 L75.3313,25.2465 C75.3159,25.0165 75.2661,24.8823 75.1817,24.844 C75.0974,24.8057 74.9249,24.7865 74.6642,24.7865 C74.0202,24.8018 73.6982,24.7328 73.6982,24.5795 C73.6982,24.4875 73.8593,24.4415 74.1813,24.4415 L74.3882,24.4415 C74.5109,24.4568 74.9173,24.4645 75.6073,24.4645 C76.5273,24.4645 77.0946,24.4568 77.3092,24.4415 L77.3092,30.8585 C77.3092,31.9625 77.3322,32.6602 77.3783,32.9515 C77.4242,33.2428 77.5431,33.4115 77.7347,33.4575 C77.9264,33.5035 78.3596,33.5265 79.0342,33.5265 C79.2182,33.5265 79.3102,33.5802 79.3102,33.6875 M89.4259,28.9955 C89.4259,30.5902 88.9429,31.9472 87.9769,33.0665 C87.0109,34.1858 85.8455,34.7455 84.4809,34.7455 C84.0055,34.7455 83.5072,34.6458 82.9859,34.4465 C82.4645,34.2472 82.1119,34.1475 81.9279,34.1475 C81.7592,34.1475 81.5675,34.2203 81.3529,34.366 C81.1382,34.5117 80.9772,34.5845 80.8699,34.5845 C80.7472,34.5845 80.6859,34.3315 80.6859,33.8255 L80.6859,21.8655 C80.6859,20.3168 80.5862,19.4812 80.3869,19.3585 C80.3102,19.3125 80.0112,19.2895 79.4899,19.2895 C79.1219,19.2895 78.9379,19.2282 78.9379,19.1055 C78.9379,18.9982 79.0222,18.9445 79.1909,18.9445 L79.5129,18.9445 C80.3562,18.9445 81.1689,18.7682 81.9509,18.4155 C82.1809,18.3082 82.3419,18.2545 82.4339,18.2545 L82.5259,18.2545 L82.5259,25.4765 C83.1085,24.6025 83.9825,24.1655 85.1479,24.1655 C86.4359,24.1655 87.4709,24.6063 88.2529,25.488 C89.0349,26.3697 89.4259,27.5388 89.4259,28.9955 M87.3329,29.1105 C87.3329,27.6692 87.1067,26.5575 86.6544,25.7755 C86.202,24.9935 85.5695,24.6025 84.7569,24.6025 C84.3275,24.6025 83.9212,24.7367 83.5379,25.005 C83.1545,25.2733 82.8939,25.6068 82.7559,26.0055 C82.6179,26.4042 82.5489,27.6155 82.5489,29.6395 C82.5489,31.7555 82.6025,33.0128 82.7099,33.4115 C82.8785,34.0555 83.4382,34.3775 84.3889,34.3775 C85.2935,34.3775 85.9605,34.0325 86.3899,33.3425 C87.0185,32.3152 87.3329,30.9045 87.3329,29.1105 M99.4304,31.9625 C99.4304,32.1158 99.3115,32.388 99.0739,32.779 C98.8362,33.17 98.5947,33.4882 98.3494,33.7335 C97.69,34.4082 96.8084,34.7455 95.7044,34.7455 C94.3244,34.7455 93.1705,34.2472 92.2429,33.2505 C91.3152,32.2538 90.8514,31.0195 90.8514,29.5475 C90.8514,28.0142 91.2922,26.7338 92.1739,25.7065 C93.0555,24.6792 94.1557,24.1655 95.4744,24.1655 C96.563,24.1655 97.4754,24.4837 98.2114,25.12 C98.9474,25.7563 99.3384,26.5728 99.3844,27.5695 C98.8937,27.6462 98.242,27.6768 97.4294,27.6615 L95.8194,27.6385 C95.712,27.6385 94.792,27.6615 93.0594,27.7075 C92.9827,28.2135 92.9444,28.6965 92.9444,29.1565 C92.9444,30.7052 93.2395,31.8973 93.8299,32.733 C94.4202,33.5687 95.252,33.9865 96.3254,33.9865 C96.9387,33.9865 97.4294,33.8485 97.7974,33.5725 C98.1654,33.2965 98.564,32.7675 98.9934,31.9855 C99.0547,31.8628 99.139,31.8015 99.2464,31.8015 C99.369,31.8015 99.4304,31.8552 99.4304,31.9625 M97.4294,27.2705 C97.368,25.4305 96.7087,24.5105 95.4514,24.5105 C94.2094,24.5105 93.435,25.4305 93.1284,27.2705 L97.4294,27.2705 M107.764,25.7295 C107.764,26.0822 107.657,26.3735 107.442,26.6035 C107.228,26.8335 106.952,26.9485 106.614,26.9485 C106.338,26.9485 106.108,26.868 105.924,26.707 C105.74,26.546 105.648,26.3428 105.648,26.0975 C105.648,25.8828 105.717,25.6988 105.855,25.5455 C105.993,25.3922 106.062,25.2848 106.062,25.2235 C106.062,24.9935 105.894,24.8785 105.556,24.8785 C105.127,24.8785 104.759,25.1468 104.452,25.6835 C104.1,26.3122 103.923,27.4775 103.923,29.1795 L103.923,33.7335 C103.923,33.9175 103.989,34.0325 104.119,34.0785 C104.249,34.1245 104.644,34.1552 105.303,34.1705 C105.472,34.2012 105.556,34.2625 105.556,34.3545 C105.556,34.4618 105.457,34.5155 105.257,34.5155 C104.905,34.5155 104.575,34.5078 104.268,34.4925 C103.962,34.4772 103.379,34.4695 102.52,34.4695 C102.076,34.4695 101.754,34.4772 101.554,34.4925 C101.355,34.5078 101.102,34.5155 100.795,34.5155 C100.55,34.5155 100.427,34.4618 100.427,34.3545 C100.427,34.2472 100.527,34.1935 100.726,34.1935 L101.048,34.1935 C101.57,34.1935 101.876,34.1322 101.968,34.0095 C101.999,33.9482 102.014,33.6645 102.014,33.1585 L102.014,26.8335 C102.014,25.9902 101.888,25.5033 101.635,25.373 C101.382,25.2427 100.979,25.1698 100.427,25.1545 C100.243,25.1545 100.151,25.1008 100.151,24.9935 C100.151,24.8862 100.228,24.8325 100.381,24.8325 L100.542,24.8325 C100.772,24.8325 101.002,24.844 101.232,24.867 C101.462,24.89 101.562,24.9015 101.531,24.9015 C102.099,24.9015 102.727,24.7405 103.417,24.4185 L103.716,24.2805 L103.9,24.2115 C103.962,24.5795 103.992,24.9475 103.992,25.3155 L103.992,25.7755 C104.483,24.7022 105.173,24.1655 106.062,24.1655 C106.553,24.1655 106.959,24.315 107.281,24.614 C107.603,24.913 107.764,25.2848 107.764,25.7295 M114.748,33.1125 C114.748,33.2505 114.556,33.4958 114.173,33.8485 C113.514,34.4465 112.732,34.7455 111.827,34.7455 C110.984,34.7455 110.347,34.5308 109.918,34.1015 C109.673,33.8562 109.55,33.1355 109.55,31.9395 L109.55,25.0855 C109.535,24.9322 109.45,24.8478 109.297,24.8325 L108.423,24.8325 C108.086,24.8325 107.917,24.7788 107.917,24.6715 C107.917,24.5642 108.001,24.5028 108.17,24.4875 C109.366,24.3802 110.301,23.7975 110.976,22.7395 C111.068,22.6015 111.183,22.5325 111.321,22.5325 C111.428,22.5325 111.482,22.5862 111.482,22.6935 L111.482,22.7855 C111.467,22.8622 111.459,22.9925 111.459,23.1765 C111.459,23.8205 111.49,24.2345 111.551,24.4185 C111.689,24.4492 111.919,24.4645 112.241,24.4645 C113.084,24.4645 113.644,24.4262 113.92,24.3495 C113.981,24.3342 114.035,24.3265 114.081,24.3265 C114.204,24.3265 114.265,24.3955 114.265,24.5335 C114.265,24.7635 113.644,24.8785 112.402,24.8785 C112.187,24.8785 111.873,24.8708 111.459,24.8555 L111.459,29.1105 C111.459,31.2572 111.513,32.6027 111.62,33.147 C111.727,33.6913 112.08,33.9635 112.678,33.9635 C113.184,33.9635 113.751,33.6798 114.38,33.1125 C114.441,33.0358 114.51,32.9975 114.587,32.9975 C114.694,32.9975 114.748,33.0358 114.748,33.1125 Z" style="stroke:none;fill-rule:nonzero;fill:#4a92e3;fill-opacity:1;"/>
        </g>
    </g>
</svg>
